<?xml version="1.0" encoding="UTF-8"?>
<svg xmlns="http://www.w3.org/2000/svg" style="stroke-dasharray:none; shape-rendering:auto; font-family:'Arial'; text-rendering:auto; fill-opacity:1; color-interpolation:auto; color-rendering:auto; font-size:12; fill:black; stroke:black; image-rendering:auto; stroke-miterlimit:10; stroke-linecap:square; stroke-linejoin:miter; font-style:normal; stroke-width:1; stroke-dashoffset:0; font-weight:normal; stroke-opacity:1;" contentScriptType="text/ecmascript" preserveAspectRatio="xMidYMid meet" zoomAndPan="magnify" version="1.0" contentStyleType="text/css" xml:xlink="http://www.w3.org/1999/xlink" width="1161" height="531"><rect x="10" y="10" width="1151" height="521" ry="0" rx="0" style="stroke:#000000; fill:#FFFFFF" /><rect x="40" y="356" width="1121" height="175" ry="0" rx="0" style="stroke:#000000; fill:#82B0B7" /><g componentSequence="7"><text x="-443" y="46" transform="rotate(270)" text-anchor="middle" style="font-weight:bold;font-size:10px;stroke:none; fill:#434343"><tspan dy="14" x="-443">RH</tspan></text></g><rect x="40" y="183" width="1121" height="173" ry="0" rx="0" style="stroke:#000000; fill:#C0C0C0" /><g componentSequence="3"><text x="-269" y="46" transform="rotate(270)" text-anchor="middle" style="font-weight:bold;font-size:10px;stroke:none; fill:#434343"><tspan dy="14" x="-269">Gestor</tspan></text></g><rect x="40" y="10" width="1121" height="173" ry="0" rx="0" style="stroke:#000000; fill:#9F9F9F" /><g componentSequence="2"><text x="-96" y="46" transform="rotate(270)" text-anchor="middle" style="font-weight:bold;font-size:10px;stroke:none; fill:#434343"><tspan dy="14" x="-96">Solicitante</tspan></text></g><g componentSequence="1"><text x="-270" y="16" transform="rotate(270)" text-anchor="middle" style="font-weight:bold;font-size:10px;stroke:none; fill:#434343"><tspan dy="14" x="-270">Cadastro de vagas</tspan></text></g><g sequence="4"><ellipse cx="167" cy="99" rx="17" ry="17" stroke-width="1" style="fill:url(#linearGradient66FF6696FF96B6FFB6_1501615722);" stroke="336633" /></g><g sequence="5"><rect x="370" y="266" width="106" height="54" ry="5" rx="5" style="fill:url(#linearGradientF8FBFEEDF5FCDEEDFAD4E7F8E2E5E9_1464283946);" stroke="191970" /></g><g componentSequence="5"><text x="423" y="282" text-anchor="middle" style="font-weight:bold;font-size:10px;stroke:none; fill:#333399"><tspan dy="14" x="423">Aprovação</tspan></text></g><g sequence="8"><rect x="94" y="412" width="106" height="67" ry="5" rx="5" style="fill:url(#linearGradientF8FBFEEDF5FCDEEDFAD4E7F8E2E5E9_1400421658);" stroke="191970" /></g><g componentSequence="8"><text x="147" y="427" text-anchor="middle" style="font-weight:bold;font-size:10px;stroke:none; fill:#333399"><tspan dy="14" x="147">Inicia processo</tspan><tspan dy="14" x="147">seletivo</tspan></text></g><g sequence="9"><rect x="320" y="405" width="106" height="80" ry="5" rx="5" style="fill:url(#linearGradientF8FBFEEDF5FCDEEDFAD4E7F8E2E5E9_377108753);" stroke="191970" /></g><g componentSequence="9"><text x="373" y="420" text-anchor="middle" style="font-weight:bold;font-size:10px;stroke:none; fill:#333399"><tspan dy="14" x="373">Finaliza</tspan><tspan dy="14" x="373">processo</tspan><tspan dy="14" x="373">Seletivo</tspan></text></g><g sequence="10"><rect x="600" y="412" width="106" height="67" ry="5" rx="5" style="fill:url(#linearGradientF8FBFEEDF5FCDEEDFAD4E7F8E2E5E9_1234603570);" stroke="191970" /></g><g componentSequence="10"><text x="653" y="427" text-anchor="middle" style="font-weight:bold;font-size:10px;stroke:none; fill:#333399"><tspan dy="14" x="653">Realiza</tspan><tspan dy="14" x="653">contratação</tspan></text></g><g sequence="15"><ellipse cx="867" cy="445" rx="17" ry="17" stroke-width="3" style="fill:url(#linearGradientFF6666FF9696FFB6B6_656812617);" stroke="993333" /></g><g sequence="19"><ellipse cx="147" cy="207" rx="17" ry="17" stroke-width="3" style="fill:url(#linearGradientFF6666FF9696FFB6B6_824230874);" stroke="993333" /></g><g sequence="19"><polygon points=" 138 203 143 198 148 203 153 198 158 203 153 208 158 213 153 218 148 213 143 218 138 213 143 208" style="stroke:none; fill:#993333" /></g><g sequence="20"><polygon points=" 117 280 147 250 177 280 147 310 117 280" style="fill:url(#linearGradientFAFBFCFFFFCC_1985332830);" stroke="000000" /></g><g componentSequence="20"><text x="147" y="312" text-anchor="middle" style="font-weight:bold;font-size:10px;stroke:none; fill:#333399"><tspan dy="14" x="147">Aprova?</tspan></text></g><g componentSequence="11"><text x="523" y="445" style="font-size:10px;font-weight:none;stroke:none; fill:#333399" text-anchor="left" /></g><g componentSequence="12"><text x="397" y="99" style="font-size:10px;font-weight:none;stroke:none; fill:#333399" text-anchor="left" /></g><g componentSequence="14"><text x="270" y="445" style="font-size:10px;font-weight:none;stroke:none; fill:#333399" text-anchor="left" /></g><g componentSequence="16"><text x="788" y="445" style="font-size:10px;font-weight:none;stroke:none; fill:#333399" text-anchor="left" /></g><g componentSequence="21"><text x="283" y="293" style="font-size:10px;font-weight:none;stroke:none; fill:#333399" text-anchor="left" /></g><g componentSequence="22"><text x="157" y="237" style="font-size:10px;font-weight:none;stroke:none; fill:#333399" text-anchor="left"><tspan dy="14" x="157">Não</tspan></text></g><g componentSequence="23"><text x="157" y="374" style="font-size:10px;font-weight:none;stroke:none; fill:#333399" text-anchor="left"><tspan dy="14" x="157">Sim</tspan></text></g><path style="fill:none; stroke:#000000;stroke-width:1" d="M185.0 99.0 L423.0 99.0 L423.0 265.0" /><polygon style="fill:#000000; stroke:#000000;" points=" 428 255 423 265 418 255 423 257" /><path style="fill:none; stroke:#000000;stroke-width:1" d="M369.0 293.0 L177.0 293.0" /><polygon style="fill:#000000; stroke:#000000;" points=" 187 298 177 293 187 288 185 293" /><path style="fill:none; stroke:#000000;stroke-width:1" d="M200.0 445.0 L319.0 445.0" /><polygon style="fill:#000000; stroke:#000000;" points=" 309 440 319 445 309 450 311 445" /><path style="fill:none; stroke:#000000;stroke-width:1" d="M147.0 336.0 L147.0 411.0" /><polygon style="fill:#000000; stroke:#000000;" points=" 152 401 147 411 142 401 147 403" /><path style="fill:none; stroke:#000000;stroke-width:1" d="M426.0 445.0 L599.0 445.0" /><polygon style="fill:#000000; stroke:#000000;" points=" 589 440 599 445 589 450 591 445" /><path style="fill:none; stroke:#000000;stroke-width:1" d="M706.0 445.0 L849.0 445.0" /><polygon style="fill:#000000; stroke:#000000;" points=" 839 440 849 445 839 450 841 445" /><path style="fill:none; stroke:#000000;stroke-width:1" d="M147.0 249.0 L147.0 225.0" /><polygon style="fill:#000000; stroke:#000000;" points=" 142 235 147 225 152 235 147 233" /><defs><linearGradient xmlns:xlink="http://www.w3.org/1999/xlink" xlink:href="#linearGradient66FF6696FF96B6FFB6" id="linearGradient66FF6696FF96B6FFB6_1501615722" x1="0" y1="82.0" x2="0" y2="117.0" gradientUnits="userSpaceOnUse" xlink:type="simple" xlink:actuate="onLoad" xlink:show="other" /><linearGradient id="linearGradient66FF6696FF96B6FFB6"><stop style="stop-color:#66FF66;stop-opacity:1;" offset="0.0" id="stop66FF66" /><stop style="stop-color:#96FF96;stop-opacity:1;" offset="0.5" id="stop96FF96" /><stop style="stop-color:#B6FFB6;stop-opacity:1;" offset="1.0" id="stopB6FFB6" /></linearGradient><linearGradient xmlns:xlink="http://www.w3.org/1999/xlink" xlink:href="#linearGradientF8FBFEEDF5FCDEEDFAD4E7F8E2E5E9" id="linearGradientF8FBFEEDF5FCDEEDFAD4E7F8E2E5E9_1464283946" x1="0" y1="266.0" x2="0" y2="372.0" gradientUnits="userSpaceOnUse" xlink:type="simple" xlink:actuate="onLoad" xlink:show="other" /><linearGradient id="linearGradientF8FBFEEDF5FCDEEDFAD4E7F8E2E5E9"><stop style="stop-color:#F8FBFE;stop-opacity:1;" offset="0.0" id="stopF8FBFE" /><stop style="stop-color:#EDF5FC;stop-opacity:1;" offset="0.25" id="stopEDF5FC" /><stop style="stop-color:#DEEDFA;stop-opacity:1;" offset="0.5" id="stopDEEDFA" /><stop style="stop-color:#D4E7F8;stop-opacity:1;" offset="0.75" id="stopD4E7F8" /><stop style="stop-color:#E2E5E9;stop-opacity:1;" offset="1.0" id="stopE2E5E9" /></linearGradient><linearGradient xmlns:xlink="http://www.w3.org/1999/xlink" xlink:href="#linearGradientF8FBFEEDF5FCDEEDFAD4E7F8E2E5E9" id="linearGradientF8FBFEEDF5FCDEEDFAD4E7F8E2E5E9_1400421658" x1="0" y1="412.0" x2="0" y2="518.0" gradientUnits="userSpaceOnUse" xlink:type="simple" xlink:actuate="onLoad" xlink:show="other" /><linearGradient xmlns:xlink="http://www.w3.org/1999/xlink" xlink:href="#linearGradientF8FBFEEDF5FCDEEDFAD4E7F8E2E5E9" id="linearGradientF8FBFEEDF5FCDEEDFAD4E7F8E2E5E9_377108753" x1="0" y1="405.0" x2="0" y2="511.0" gradientUnits="userSpaceOnUse" xlink:type="simple" xlink:actuate="onLoad" xlink:show="other" /><linearGradient xmlns:xlink="http://www.w3.org/1999/xlink" xlink:href="#linearGradientF8FBFEEDF5FCDEEDFAD4E7F8E2E5E9" id="linearGradientF8FBFEEDF5FCDEEDFAD4E7F8E2E5E9_1234603570" x1="0" y1="412.0" x2="0" y2="518.0" gradientUnits="userSpaceOnUse" xlink:type="simple" xlink:actuate="onLoad" xlink:show="other" /><linearGradient xmlns:xlink="http://www.w3.org/1999/xlink" xlink:href="#linearGradientFF6666FF9696FFB6B6" id="linearGradientFF6666FF9696FFB6B6_656812617" x1="0" y1="428.0" x2="0" y2="463.0" gradientUnits="userSpaceOnUse" xlink:type="simple" xlink:actuate="onLoad" xlink:show="other" /><linearGradient id="linearGradientFF6666FF9696FFB6B6"><stop style="stop-color:#FF6666;stop-opacity:1;" offset="0.0" id="stopFF6666" /><stop style="stop-color:#FF9696;stop-opacity:1;" offset="0.5" id="stopFF9696" /><stop style="stop-color:#FFB6B6;stop-opacity:1;" offset="1.0" id="stopFFB6B6" /></linearGradient><linearGradient xmlns:xlink="http://www.w3.org/1999/xlink" xlink:href="#linearGradientFF6666FF9696FFB6B6" id="linearGradientFF6666FF9696FFB6B6_824230874" x1="0" y1="190.0" x2="0" y2="225.0" gradientUnits="userSpaceOnUse" xlink:type="simple" xlink:actuate="onLoad" xlink:show="other" /><linearGradient xmlns:xlink="http://www.w3.org/1999/xlink" xlink:href="#linearGradientFAFBFCFFFFCC" id="linearGradientFAFBFCFFFFCC_1985332830" x1="0" y1="250.0" x2="0" y2="310.0" gradientUnits="userSpaceOnUse" xlink:type="simple" xlink:actuate="onLoad" xlink:show="other" /><linearGradient id="linearGradientFAFBFCFFFFCC"><stop style="stop-color:#FAFBFC;stop-opacity:1;" offset="0.0" id="stopFAFBFC" /><stop style="stop-color:#FFFFCC;stop-opacity:1;" offset="1.0" id="stopFFFFCC" /></linearGradient></defs></svg>
